<svg width="22" height="23" viewBox="0 0 22 23" fill="none" xmlns="http://www.w3.org/2000/svg">
<path fill-rule="evenodd" clip-rule="evenodd" d="M0.00012207 11.3837C0.00012207 8.48095 1.15322 5.69712 3.20575 3.64459C5.25828 1.59206 8.04211 0.438965 10.9448 0.438965C13.8475 0.438965 16.6314 1.59206 18.6839 3.64459C20.7364 5.69712 21.8895 8.48095 21.8895 11.3837C21.8895 14.2864 20.7364 17.0702 18.6839 19.1227C16.6314 21.1753 13.8475 22.3284 10.9448 22.3284C8.04211 22.3284 5.25828 21.1753 3.20575 19.1227C1.15322 17.0702 0.00012207 14.2864 0.00012207 11.3837H0.00012207ZM10.3202 16.068L16.6215 8.19073L15.4832 7.28013L10.1101 13.9943L6.30427 10.8233L5.37032 11.944L10.3202 16.0695V16.068Z" fill="#0777A2" fill-opacity="0.77"/>
</svg>
