<svg width="177" height="52" viewBox="0 0 177 52" fill="none" xmlns="http://www.w3.org/2000/svg">
<rect x="6.95825" y="5.11206" width="27.1924" height="37.465" rx="3.02137" transform="rotate(-4.63313 6.95825 5.11206)" fill="white"/>
<path fill-rule="evenodd" clip-rule="evenodd" d="M6.07774 8.48933L2.47411 9.63291C1.04809 10.0854 0.258929 11.6083 0.711463 13.0343L8.41276 37.3025L6.07774 8.48933ZM10.3577 41.3516C11.0112 41.7682 11.838 41.9029 12.6345 41.6501L13.1992 41.4709L11.7911 41.585C11.2835 41.6261 10.7952 41.5393 10.3577 41.3516Z" fill="white"/>
<path fill-rule="evenodd" clip-rule="evenodd" d="M35.5466 6.00775L38.7441 6.54498C40.2195 6.79288 41.2628 8.19701 41.0743 9.68118L37.8817 34.8216L35.5466 6.00775ZM36.852 38.962C36.2808 39.5652 35.429 39.8781 34.5303 39.7271L34.2156 39.6742L35.2369 39.5914C35.8483 39.5419 36.4024 39.3136 36.852 38.962Z" fill="white"/>
<circle cx="32.5992" cy="45.3731" r="2.8939" fill="white"/>
<circle cx="17.4062" cy="46.82" r="2.8939" fill="white"/>
<path d="M62.104 37.0935L56.3637 29.0789L56.3099 37.0544L50.4817 37.0151L50.6519 11.7935L56.4801 11.8328L56.386 25.7729L62.1983 18.0748L69.3899 18.1234L61.4182 27.6133L69.3297 37.1423L62.104 37.0935ZM70.4563 27.6062C70.4695 25.6521 70.8446 23.939 71.5817 22.467C72.3415 20.9951 73.3603 19.8658 74.6381 19.0791C75.9159 18.2924 77.3387 17.9044 78.9065 17.915C80.2472 17.924 81.4155 18.2046 82.4116 18.7567C83.4304 19.3089 84.2095 20.0299 84.7488 20.9198L84.767 18.2272L90.5953 18.2665L90.4669 37.285L84.6386 37.2456L84.6568 34.5531C84.0828 35.4354 83.2827 36.1458 82.2565 36.6842C81.253 37.2228 80.081 37.4875 78.7404 37.4785C77.1953 37.4681 75.7892 37.0609 74.5221 36.2571C73.2552 35.4305 72.2518 34.2762 71.512 32.7942C70.795 31.2896 70.4431 29.5603 70.4563 27.6062ZM84.7028 27.7364C84.7126 26.2822 84.3114 25.132 83.4991 24.2857C82.7095 23.4396 81.7353 23.0127 80.5764 23.0049C79.4176 22.997 78.4263 23.4107 77.6027 24.2459C76.8019 25.0586 76.3966 26.192 76.3868 27.6462C76.3769 29.1004 76.7667 30.2619 77.5562 31.1307C78.3685 31.977 79.3541 32.404 80.5129 32.4118C81.6718 32.4197 82.6516 32.0059 83.4526 31.1705C84.2763 30.3353 84.693 29.1906 84.7028 27.7364ZM100.619 21.5041C101.307 20.4635 102.165 19.6512 103.191 19.0674C104.218 18.4608 105.356 18.1617 106.606 18.1701L106.564 24.3392L104.962 24.3284C103.508 24.3185 102.415 24.6293 101.684 25.2606C100.953 25.8692 100.582 26.9574 100.571 28.5252L100.512 37.3528L94.6833 37.3134L94.8117 18.295L100.64 18.3343L100.619 21.5041ZM119.895 32.5413L119.862 37.4834L116.897 37.4634C114.783 37.4491 113.139 36.9268 111.965 35.8963C110.79 34.8431 110.211 33.1463 110.227 30.8059L110.278 23.2394L107.96 23.2238L107.993 18.384L110.311 18.3996L110.342 13.7643L116.17 13.8037L116.139 18.439L119.956 18.4647L119.923 23.3046L116.106 23.2788L116.055 30.9134C116.051 31.4815 116.184 31.8914 116.455 32.1432C116.726 32.395 117.18 32.523 117.816 32.5273L119.895 32.5413ZM129.107 12.3231L128.936 37.5447L123.108 37.5053L123.278 12.2837L129.107 12.3231ZM141.815 37.9043C139.952 37.8917 138.273 37.4827 136.779 36.6773C135.308 35.8721 134.145 34.7281 133.292 33.2453C132.461 31.7627 132.052 30.033 132.065 28.0561C132.079 26.102 132.522 24.3894 133.395 22.9183C134.269 21.4245 135.458 20.285 136.963 19.4998C138.468 18.7147 140.152 18.3284 142.016 18.341C143.879 18.3536 145.558 18.7625 147.052 19.5679C148.546 20.3733 149.72 21.5288 150.573 23.0343C151.427 24.517 151.847 26.2355 151.834 28.1896C151.821 30.1437 151.366 31.8676 150.47 33.3613C149.596 34.8324 148.396 35.9604 146.868 36.7454C145.363 37.5306 143.679 37.9169 141.815 37.9043ZM141.849 32.86C142.963 32.8675 143.909 32.4649 144.687 31.6521C145.487 30.8394 145.893 29.6719 145.903 28.1496C145.914 26.6272 145.535 25.4544 144.768 24.6312C144.024 23.8081 143.095 23.3928 141.982 23.3853C140.845 23.3776 139.9 23.7803 139.144 24.5932C138.389 25.3834 138.006 26.5511 137.996 28.0962C137.986 29.6186 138.341 30.7912 139.063 31.6141C139.807 32.4372 140.736 32.8525 141.849 32.86ZM162.217 18.4773C163.558 18.4864 164.726 18.767 165.722 19.319C166.741 19.8713 167.52 20.5923 168.06 21.4822L168.078 18.7896L173.906 18.8289L173.778 37.8133C173.766 39.5629 173.403 41.1397 172.689 42.5437C171.998 43.9706 170.934 45.0996 169.497 45.9306C168.082 46.7619 166.318 47.1703 164.205 47.1561C161.388 47.137 159.109 46.4513 157.368 45.0989C155.627 43.7692 154.64 41.9674 154.405 39.6935L160.165 39.7324C160.342 40.4607 160.77 41.0317 161.449 41.4453C162.128 41.8816 162.967 42.1032 163.967 42.1099C165.171 42.118 166.128 41.7723 166.837 41.0727C167.568 40.3959 167.939 39.2963 167.95 37.7739L167.968 35.0814C167.394 35.9637 166.605 36.6855 165.601 37.2468C164.598 37.7854 163.426 38.0502 162.085 38.0411C160.517 38.0305 159.1 37.6233 157.833 36.8194C156.566 35.9929 155.563 34.8386 154.823 33.3566C154.106 31.852 153.754 30.1227 153.767 28.1686C153.78 26.2144 154.155 24.5014 154.893 23.0293C155.652 21.5575 156.671 20.4282 157.949 19.6415C159.227 18.8548 160.65 18.4668 162.217 18.4773ZM168.014 28.2988C168.023 26.8446 167.622 25.6944 166.81 24.8481C166.02 24.002 165.046 23.5751 163.887 23.5673C162.728 23.5594 161.737 23.9731 160.914 24.8083C160.113 25.6209 159.707 26.7544 159.698 28.2086C159.688 29.6628 160.078 30.8243 160.867 31.6931C161.679 32.5394 162.665 32.9664 163.824 32.9742C164.983 32.982 165.962 32.5683 166.763 31.7329C167.587 30.8977 168.004 29.753 168.014 28.2988Z" fill="white"/>
</svg>
