<svg width="25" height="24" viewBox="0 0 25 24" fill="none" xmlns="http://www.w3.org/2000/svg">
<path d="M12.0559 7.35547C10.8352 7.35547 9.66451 7.83249 8.80134 8.6816C7.93817 9.53071 7.45325 10.6824 7.45325 11.8832C7.45325 13.084 7.93817 14.2356 8.80134 15.0848C9.66451 15.9339 10.8352 16.4109 12.0559 16.4109C13.2766 16.4109 14.4473 15.9339 15.3105 15.0848C16.1737 14.2356 16.6586 13.084 16.6586 11.8832C16.6586 10.6824 16.1737 9.53071 15.3105 8.6816C14.4473 7.83249 13.2766 7.35547 12.0559 7.35547ZM12.0559 14.8236C11.2629 14.8236 10.5023 14.5137 9.94157 13.9621C9.38081 13.4105 9.06578 12.6623 9.06578 11.8822C9.06578 11.1021 9.38081 10.3539 9.94157 9.80228C10.5023 9.25066 11.2629 8.94075 12.0559 8.94075C12.849 8.94075 13.6095 9.25066 14.1703 9.80228C14.731 10.3539 15.0461 11.1021 15.0461 11.8822C15.0461 12.6623 14.731 13.4105 14.1703 13.9621C13.6095 14.5137 12.849 14.8236 12.0559 14.8236Z" fill="#C4C4C4"/>
<path d="M16.8409 8.24465C17.4335 8.24465 17.9139 7.77206 17.9139 7.1891C17.9139 6.60613 17.4335 6.13354 16.8409 6.13354C16.2482 6.13354 15.7678 6.60613 15.7678 7.1891C15.7678 7.77206 16.2482 8.24465 16.8409 8.24465Z" fill="#C4C4C4"/>
<path d="M20.5505 6.11578C20.3201 5.53041 19.9679 4.99882 19.5166 4.55503C19.0653 4.11125 18.5248 3.76505 17.9296 3.53859C17.2332 3.28142 16.4975 3.14236 15.7537 3.12734C14.7952 3.08621 14.4916 3.07446 12.0608 3.07446C9.63009 3.07446 9.31853 3.07446 8.36794 3.12734C7.62477 3.14159 6.88954 3.28068 6.19401 3.53859C5.5987 3.76478 5.05804 4.11089 4.6067 4.55471C4.15536 4.99853 3.80331 5.53026 3.57315 6.11578C3.31167 6.80083 3.17063 7.52466 3.15608 8.25626C3.11328 9.19823 3.10034 9.49688 3.10034 11.889C3.10034 14.2801 3.10034 14.5847 3.15608 15.5217C3.17101 16.2542 3.31136 16.9768 3.57315 17.6632C3.80396 18.2485 4.15635 18.78 4.60779 19.2238C5.05924 19.6675 5.59983 20.0138 6.195 20.2404C6.88922 20.5079 7.62475 20.6569 8.36993 20.681C9.32849 20.7221 9.63208 20.7349 12.0628 20.7349C14.4936 20.7349 14.8051 20.7349 15.7557 20.681C16.4994 20.6661 17.2351 20.5274 17.9316 20.2707C18.5266 20.0438 19.067 19.6973 19.5183 19.2534C19.9695 18.8094 20.3217 18.2779 20.5525 17.6926C20.8143 17.0072 20.9546 16.2845 20.9696 15.5521C21.0124 14.6101 21.0253 14.3115 21.0253 11.9194C21.0253 9.52723 21.0253 9.22369 20.9696 8.28661C20.958 7.54467 20.8162 6.81026 20.5505 6.11578ZM19.3381 15.4493C19.3317 16.0136 19.227 16.5726 19.0285 17.1021C18.8791 17.4829 18.6502 17.8287 18.3567 18.1172C18.0632 18.4058 17.7116 18.6307 17.3244 18.7775C16.7921 18.9718 16.2299 19.0748 15.6621 19.082C14.7165 19.1251 14.4498 19.1359 12.025 19.1359C9.59824 19.1359 9.35039 19.1359 8.38685 19.082C7.81941 19.0752 7.25741 18.9722 6.72555 18.7775C6.33703 18.6316 5.98398 18.4071 5.68924 18.1185C5.39449 17.8299 5.16461 17.4836 5.01447 17.1021C4.81883 16.5783 4.71418 16.0259 4.70491 15.4679C4.66211 14.5377 4.65215 14.2753 4.65215 11.89C4.65215 9.50373 4.65215 9.25992 4.70491 8.31109C4.71134 7.74711 4.81605 7.18839 5.01447 6.65922C5.31807 5.88666 5.94019 5.27859 6.72555 4.98288C7.25767 4.78914 7.8195 4.68615 8.38685 4.67835C9.33346 4.63625 9.59923 4.6245 12.025 4.6245C14.4508 4.6245 14.6996 4.6245 15.6621 4.67835C16.2299 4.68507 16.7923 4.78809 17.3244 4.98288C17.7116 5.13002 18.0632 5.35516 18.3566 5.64385C18.6501 5.93254 18.879 6.2784 19.0285 6.65922C19.2242 7.18303 19.3288 7.7355 19.3381 8.29347C19.3809 9.22467 19.3919 9.4861 19.3919 11.8724C19.3919 14.2576 19.3919 14.5142 19.3491 15.4503H19.3381V15.4493Z" fill="#C4C4C4"/>
</svg>
