<svg width="166" height="38" viewBox="0 0 166 38" fill="none" xmlns="http://www.w3.org/2000/svg">
<rect x="4.31799" y="6.4502" width="16.8634" height="23.234" rx="3.30313" transform="rotate(-4.63313 4.31799 6.4502)" fill="#0777A2"/>
<path fill-rule="evenodd" clip-rule="evenodd" d="M3.87667 8.51142C3.82865 8.78358 3.81425 9.06626 3.83761 9.3546L5.18072 25.928C5.27939 27.1455 6.02639 28.1551 7.05511 28.6451C6.26547 28.3258 5.61886 27.6699 5.34109 26.7947L0.831717 12.5848C0.336983 11.0258 1.19974 9.36092 2.75874 8.86618L3.87667 8.51142Z" fill="#0777A2"/>
<path fill-rule="evenodd" clip-rule="evenodd" d="M21.9375 6.98726C22.0292 7.24883 22.0892 7.52631 22.1127 7.81553L23.4558 24.3889C23.5556 25.6201 22.9668 26.7482 22.0117 27.3941C22.7728 26.9733 23.3262 26.2051 23.4466 25.2571L25.3136 10.5551C25.5196 8.93256 24.3791 7.39749 22.7661 7.12647L21.9375 6.98726Z" fill="#0777A2"/>
<circle cx="20.2193" cy="31.4181" r="1.79465" fill="#0777A2"/>
<ellipse cx="10.7973" cy="32.3154" rx="1.79466" ry="1.79466" fill="#0777A2"/>
<path d="M51.596 29.2499L47.1771 23.0802L47.1356 29.2198L42.649 29.1895L42.7801 9.77372L47.2667 9.80401L47.1942 20.5351L51.6686 14.6092L57.2047 14.6465L51.068 21.9519L57.1583 29.2874L51.596 29.2499ZM58.0256 21.9464C58.0358 20.4422 58.3245 19.1234 58.8919 17.9902C59.4768 16.8572 60.2611 15.9878 61.2448 15.3823C62.2285 14.7767 63.3238 14.4779 64.5307 14.4861C65.5627 14.493 66.4621 14.709 67.2289 15.134C68.0132 15.5591 68.6129 16.1142 69.0281 16.7992L69.0421 14.7264L73.5287 14.7567L73.4299 29.3973L68.9433 29.367L68.9573 27.2942C68.5154 27.9734 67.8995 28.5203 67.1095 28.9348C66.337 29.3494 65.4348 29.5532 64.4028 29.5462C63.2133 29.5382 62.1309 29.2248 61.1555 28.606C60.1802 27.9696 59.4078 27.0811 58.8383 25.9402C58.2863 24.782 58.0154 23.4507 58.0256 21.9464ZM68.9927 22.0467C69.0003 20.9272 68.6914 20.0418 68.066 19.3903C67.4582 18.739 66.7082 18.4103 65.8162 18.4043C64.9241 18.3983 64.161 18.7168 63.527 19.3597C62.9105 19.9853 62.5985 20.8578 62.5909 21.9773C62.5834 23.0967 62.8835 23.9909 63.4912 24.6597C64.1165 25.3111 64.8752 25.6399 65.7673 25.6459C66.6594 25.6519 67.4137 25.3334 68.0303 24.6903C68.6643 24.0474 68.9851 23.1662 68.9927 22.0467ZM81.2447 17.249C81.7749 16.4479 82.4351 15.8227 83.2253 15.3732C84.0156 14.9062 84.8918 14.676 85.8538 14.6825L85.8218 19.4315L84.5886 19.4232C83.4691 19.4156 82.6279 19.6548 82.0649 20.1408C81.5019 20.6093 81.2164 21.447 81.2082 22.6539L81.1624 29.4495L76.6758 29.4192L76.7746 14.7786L81.2612 14.8089L81.2447 17.249ZM96.084 25.7456L96.0583 29.55L93.7756 29.5346C92.1489 29.5236 90.8834 29.1215 89.9792 28.3282C89.075 27.5175 88.6291 26.2113 88.6412 24.4096L88.6805 18.5849L86.8964 18.5729L86.9215 14.8471L88.7057 14.8592L88.7298 11.2909L93.2164 11.3212L93.1923 14.8895L96.1309 14.9093L96.1058 18.635L93.1672 18.6152L93.1275 24.4924C93.1245 24.9297 93.2273 25.2452 93.436 25.4391C93.6446 25.6329 93.9937 25.7315 94.4835 25.7348L96.084 25.7456ZM103.175 10.1814L103.044 29.5972L98.5574 29.5669L98.6885 10.1511L103.175 10.1814ZM112.958 29.874C111.524 29.8643 110.232 29.5495 109.081 28.9295C107.949 28.3096 107.054 27.4289 106.397 26.2875C105.757 25.1462 105.443 23.8146 105.453 22.2928C105.463 20.7885 105.804 19.4702 106.477 18.3377C107.149 17.1877 108.065 16.3105 109.223 15.7061C110.382 15.1017 111.678 14.8044 113.112 14.814C114.547 14.8237 115.839 15.1386 116.989 15.7586C118.14 16.3786 119.043 17.268 119.7 18.427C120.357 19.5684 120.681 20.8913 120.671 22.3956C120.66 23.8998 120.31 25.2269 119.62 26.3768C118.948 27.5092 118.024 28.3776 116.848 28.9819C115.689 29.5863 114.393 29.8837 112.958 29.874ZM112.985 25.9909C113.842 25.9966 114.57 25.6867 115.169 25.061C115.785 24.4354 116.097 23.5367 116.105 22.3647C116.113 21.1928 115.822 20.29 115.231 19.6563C114.658 19.0227 113.943 18.703 113.086 18.6972C112.212 18.6913 111.484 19.0012 110.902 19.627C110.321 20.2353 110.026 21.1342 110.018 22.3237C110.01 23.4956 110.284 24.3983 110.839 25.0318C111.412 25.6654 112.127 25.9851 112.985 25.9909ZM128.664 14.919C129.696 14.926 130.595 15.142 131.362 15.567C132.146 15.9921 132.746 16.5471 133.161 17.2321L133.175 15.1594L137.662 15.1897L137.563 29.804C137.554 31.1508 137.275 32.3647 136.725 33.4455C136.193 34.5439 135.374 35.413 134.268 36.0528C133.179 36.6926 131.821 37.0071 130.194 36.9961C128.025 36.9814 126.271 36.4536 124.931 35.4125C123.591 34.3889 122.831 33.0018 122.65 31.2514L127.084 31.2813C127.22 31.842 127.55 32.2815 128.072 32.5999C128.595 32.9358 129.241 33.1063 130.011 33.1115C130.938 33.1178 131.674 32.8516 132.22 32.313C132.783 31.7921 133.069 30.9456 133.077 29.7737L133.091 27.7009C132.649 28.3801 132.042 28.9358 131.269 29.3679C130.497 29.7825 129.594 29.9863 128.562 29.9793C127.355 29.9712 126.264 29.6577 125.289 29.0389C124.314 28.4026 123.541 27.514 122.972 26.3731C122.42 25.2149 122.149 23.8837 122.159 22.3794C122.169 20.8751 122.458 19.5564 123.025 18.4232C123.61 17.2901 124.394 16.4208 125.378 15.8152C126.362 15.2096 127.457 14.9109 128.664 14.919ZM133.126 22.4796C133.134 21.3602 132.825 20.4747 132.199 19.8233C131.591 19.172 130.842 18.8433 129.949 18.8373C129.057 18.8312 128.294 19.1497 127.66 19.7926C127.044 20.4182 126.732 21.2907 126.724 22.4102C126.717 23.5297 127.017 24.4238 127.624 25.0926C128.25 25.7441 129.008 26.0728 129.901 26.0788C130.793 26.0848 131.547 25.7663 132.164 25.1233C132.798 24.4803 133.118 23.5991 133.126 22.4796Z" fill="#0777A2"/>
</svg>
