<svg width="24" height="25" viewBox="0 0 24 25" fill="none" xmlns="http://www.w3.org/2000/svg">
<path d="M1.85338 7.01183L10.6847 11.6788C10.9815 11.8351 11.3653 11.9093 11.7516 11.9093C12.1378 11.9093 12.5216 11.8351 12.8184 11.6788L21.6497 7.01183C22.2255 6.70719 22.7695 5.52222 21.7133 5.52222H1.79098C0.734747 5.52222 1.27876 6.70719 1.85338 7.01183ZM21.917 9.56364L12.8184 14.2282C12.418 14.4344 12.1378 14.4588 11.7516 14.4588C11.3653 14.4588 11.0851 14.4344 10.6847 14.2282C10.2844 14.0221 2.28553 9.89724 1.63201 9.56248C1.17278 9.32618 1.17749 9.60302 1.17749 9.81616V18.2639C1.17749 18.7504 1.84396 19.4222 2.355 19.4222H21.1952C21.7062 19.4222 22.3727 18.7504 22.3727 18.2639V9.81732C22.3727 9.60418 22.3774 9.32734 21.917 9.56364Z" fill="white"/>
</svg>
