<svg width="24" height="24" viewBox="0 0 24 24" fill="none" xmlns="http://www.w3.org/2000/svg">
<path d="M11.7751 0.555542C5.2719 0.555542 0 5.74157 0 12.1389C0 18.5362 5.2719 23.7222 11.7751 23.7222C18.2784 23.7222 23.5503 18.5362 23.5503 12.1389C23.5503 5.74157 18.2784 0.555542 11.7751 0.555542ZM7.54344 5.15663C7.78605 5.14256 8.00534 5.28521 8.17159 5.5384L9.78146 8.54169C9.95096 8.89757 9.85464 9.27862 9.60179 9.5329L8.86442 10.2583C8.8189 10.3196 8.78896 10.3887 8.78823 10.4647C9.07101 11.5415 9.92879 12.5347 10.6856 13.2177C11.4424 13.9008 12.2558 14.8255 13.3117 15.0446C13.4422 15.0804 13.6021 15.0932 13.6955 15.0079L14.5522 14.1496C14.8479 13.9291 15.2757 13.8222 15.5914 14.0025H15.6058L18.5107 15.6894C18.9371 15.9523 18.9813 16.4605 18.676 16.7697L16.6752 18.7224C16.3797 19.0205 15.9872 19.1207 15.6058 19.1211C13.9191 19.0714 12.3253 18.257 11.0162 17.4201C8.86746 15.8824 6.89644 13.9751 5.65903 11.6709C5.18445 10.7046 4.62696 9.47176 4.68016 8.39327C4.68491 7.98754 4.7965 7.59006 5.08695 7.32855L7.0878 5.36029C7.24367 5.22982 7.39786 5.16509 7.54344 5.15663Z" fill="white"/>
</svg>
