<svg width="20" height="16" viewBox="0 0 20 16" fill="none" xmlns="http://www.w3.org/2000/svg">
<path d="M19.4671 1.96809C18.7532 2.27103 17.9763 2.48905 17.1761 2.57396C18.0069 2.08843 18.6291 1.32138 18.9258 0.416712C18.1463 0.872922 17.2922 1.19282 16.4016 1.36223C16.0294 0.970772 15.5792 0.65892 15.0791 0.446104C14.579 0.233288 14.0397 0.12407 13.4948 0.125254C11.2901 0.125254 9.5171 1.88318 9.5171 4.04043C9.5171 4.34336 9.55442 4.64629 9.61508 4.93775C6.31397 4.76793 3.3698 3.21654 1.41246 0.841276C1.05581 1.44052 0.868916 2.12283 0.871217 2.81722C0.871217 4.17583 1.57343 5.37379 2.64425 6.07834C2.0132 6.05389 1.39693 5.88327 0.845554 5.58034V5.62853C0.845554 7.53104 2.21266 9.10767 4.03468 9.47027C3.69258 9.55768 3.34065 9.6024 2.98719 9.60337C2.72824 9.60337 2.48328 9.57813 2.23599 9.54371C2.7399 11.0951 4.20732 12.2219 5.95469 12.2586C4.58759 13.312 2.87521 13.9316 1.01586 13.9316C0.682249 13.9316 0.3743 13.9202 0.0546875 13.8834C1.81839 14.9965 3.91104 15.6391 6.16466 15.6391C13.4808 15.6391 17.4841 9.67681 17.4841 4.50171C17.4841 4.33189 17.4841 4.16206 17.4724 3.99223C18.247 3.43456 18.9258 2.74379 19.4671 1.96809Z" fill="#C4C4C4"/>
</svg>
